<?xml version="1.0" encoding="utf-8"?>
<!-- Generator: Adobe Illustrator 22.1.0, SVG Export Plug-In . SVG Version: 6.00 Build 0)  -->
<svg version="1.1" id="Layer_1" xmlns="http://www.w3.org/2000/svg" xmlns:xlink="http://www.w3.org/1999/xlink" x="0px" y="0px"
	 viewBox="0 0 52 52" style="enable-background:new 0 0 52 52;" xml:space="preserve">
<style type="text/css">
	.st0{fill:#FFFF00;}
</style>
<image style="display:none;overflow:visible;enable-background:new    ;" width="48" height="52" id="Pac-Man" xlink:href="7C498838395EF54F.jpg"  transform="matrix(1 0 0 1 4 0)">
</image>
<polygon class="st0" points="52,33.8 52,36 52,36 52,36 48,36 48,44.1 44.1,44.1 44.1,48.1 36,48.1 36,52 16,52 16,48 8,48 8,44.1 
	4,44.1 4,44.1 4,44.1 4,36.1 0,36.1 0,16.1 4,16.1 4,8 4,8 4,7.9 7.9,7.9 7.9,4 8,4 8,4 16,4 16,0 36,0 36,4 44.1,4 44.1,4 44.1,4 
	44.1,7.9 48.1,7.9 48.1,16 52,16 52,33.8 "/>
</svg>
