<?xml version="1.0" encoding="utf-8"?>
<!-- Generator: Adobe Illustrator 22.1.0, SVG Export Plug-In . SVG Version: 6.00 Build 0)  -->
<svg version="1.1" id="Layer_1" xmlns="http://www.w3.org/2000/svg" xmlns:xlink="http://www.w3.org/1999/xlink" x="0px" y="0px"
	 viewBox="0 0 56 56" style="enable-background:new 0 0 56 56;" xml:space="preserve">
<style type="text/css">
	.st0{fill:#FF0000;}
	.st1{fill:#2121DE;}
	.st2{fill:#DEDEDE;}
</style>
<rect x="48.2" y="12.1" class="st0" width="3.8" height="3.8"/>
<path class="st0" d="M0,23.9L0,56h4v-4.1h4.5v-4H12v4h4V56h8.1v-8.1h7.9V56h8v-4.1h4.1v-4h4v4H52V56h4V23.9h-4V28h-3.8v4.1H40V28h-4
	V16h4v-3.8h8.1V8h-4V3.9H36V0L20.1,0v3.9H12V8H8v4.1H4v11.8H0z M12,16h4v-3.8h8.1V16H28v12h-3.8v4.1h-8.1V28h-4V16z"/>
<rect x="44.2" y="19.9" class="st1" width="7.9" height="8.1"/>
<polygon class="st2" points="36,16 36,28 40.1,28 40.1,32.1 48.1,32.1 48.1,28 44.1,28 44.1,19.9 52,19.9 52,16 48.2,16 48.2,12.1 
	40,12.1 40,16 "/>
<polygon class="st2" points="12,16 12,28 16.1,28 16.1,32.1 24.2,32.1 24.2,28 20,28 20,19.9 28,19.9 28,16 24.2,16 24.2,12.1 
	16.1,12.1 16.1,16 "/>
<rect x="20" y="20" transform="matrix(-1 -4.491442e-11 4.491442e-11 -1 48.0216 47.9716)" class="st1" width="8" height="8"/>
</svg>
