<?xml version="1.0" encoding="utf-8"?>
<!-- Generator: Adobe Illustrator 22.1.0, SVG Export Plug-In . SVG Version: 6.00 Build 0)  -->
<svg version="1.1" id="Layer_1" xmlns="http://www.w3.org/2000/svg" xmlns:xlink="http://www.w3.org/1999/xlink" x="0px" y="0px"
	 viewBox="0 0 56 56" style="enable-background:new 0 0 56 56;" xml:space="preserve">
<style type="text/css">
	.st0{fill:#FF0000;}
	.st1{fill:#2121DE;}
	.st2{fill:#DEDEDE;}
</style>
<rect x="48.2" y="12.1" class="st0" width="3.8" height="3.8"/>
<rect x="44.2" y="19.9" class="st1" width="7.9" height="8.1"/>
<polygon class="st2" points="36,16 36,28 40.1,28 40.1,32.1 48.1,32.1 48.1,28 44.1,28 44.1,19.9 52,19.9 52,16 48.2,16 48.2,12.1 
	40,12.1 40,16 "/>
<polygon class="st2" points="12,16 12,28 16.1,28 16.1,32.1 24.2,32.1 24.2,28 20,28 20,19.9 28,19.9 28,16 24.2,16 24.2,12.1 
	16.1,12.1 16.1,16 "/>
<rect x="20" y="20" transform="matrix(-1 -4.491442e-11 4.491442e-11 -1 48.0216 47.9716)" class="st1" width="8" height="8"/>
<path class="st0" d="M0,23.9l0,28.2h4V56h8v-4.1H16V48h4.1v3.9H24V56h8v-3.9h4.1V48h3.9v4.1h4V56h8v-3.9h4V24h-4v4h-3.8v4.1H40V28
	h-4V16h4v-3.8h8.1V8H44V3.9h-8V0l-16,0v3.9h-8V8H8v4.1H4v11.8H0z M12,16h4v-3.8h8.1V16H28v12h-3.8v4.1h-8.1V28h-4V16z"/>
</svg>
