<?xml version="1.0" encoding="utf-8"?>
<!-- Generator: Adobe Illustrator 22.1.0, SVG Export Plug-In . SVG Version: 6.00 Build 0)  -->
<svg version="1.1" id="Layer_1" xmlns="http://www.w3.org/2000/svg" xmlns:xlink="http://www.w3.org/1999/xlink" x="0px" y="0px"
	 viewBox="0 0 56 56" style="enable-background:new 0 0 56 56;" xml:space="preserve">
<style type="text/css">
	.st0{fill:#FF0000;}
	.st1{fill:#2121DE;}
	.st2{fill:#DEDEDE;}
</style>
<image style="display:none;overflow:visible;enable-background:new    ;" width="56" height="56" id="Blinky" xlink:href="63CD73B46766B9.jpg" >
</image>
<rect x="4" y="12.1" class="st0" width="3.8" height="3.8"/>
<rect x="4" y="19.9" class="st1" width="7.9" height="8.1"/>
<polygon class="st2" points="20,16 20,28 15.9,28 15.9,32.1 7.9,32.1 7.9,28 11.9,28 11.9,19.9 4,19.9 4,16 7.8,16 7.8,12.1 
	16,12.1 16,16 "/>
<polygon class="st2" points="44,16 44,28 39.9,28 39.9,32.1 31.8,32.1 31.8,28 36,28 36,19.9 28,19.9 28,16 31.8,16 31.8,12.1 
	39.9,12.1 39.9,16 "/>
<rect x="28" y="20" class="st1" width="8" height="8"/>
<path class="st0" d="M52,23.9V12.1h-4V8h-4V3.9h-8V0H20v3.9h-8V8H7.8v4.1H16V16h4v12h-4v4.1H7.8V28H4v-4H0v28.1h4V56h8v-3.9h4V48
	h3.9v4.1H24V56h8v-4.1h3.9V48H40v3.9h3.9V56h8v-3.9h4V23.9H52z M44,28h-4v4.1h-8.1V28H28V16h3.8v-3.8h8.1V16h4V28z"/>
</svg>
