<?xml version="1.0" encoding="utf-8"?>
<!-- Generator: Adobe Illustrator 22.1.0, SVG Export Plug-In . SVG Version: 6.00 Build 0)  -->
<svg version="1.1" id="Layer_1" xmlns="http://www.w3.org/2000/svg" xmlns:xlink="http://www.w3.org/1999/xlink" x="0px" y="0px"
	 viewBox="0 0 56 56" style="enable-background:new 0 0 56 56;" xml:space="preserve">
<style type="text/css">
	.st0{fill:#DEDEDE;}
	.st1{fill:#2121DE;}
	.st2{fill:#00FFDE;}
</style>
<polygon class="st0" points="23.9,8 23.9,19.9 20,19.9 20,24 11.8,24 11.8,20 7.9,20 7.9,8 12,8 12,12 20,12 20,8 "/>
<polygon class="st0" points="47.9,8 47.9,20 44,20 44,24 36,24 36,19.9 31.9,19.9 31.9,8 36,8 36,12 44,12 44,8 "/>
<rect x="12" y="4.1" class="st1" width="8" height="8"/>
<rect x="36" y="3.9" class="st1" width="8.1" height="8.1"/>
<polygon class="st2" points="56,23.8 56,52.1 52,52.1 52,56 44,56 44,52.1 40.1,52.1 40.1,48 36.1,48 36.1,52.1 32,52.1 32,56 
	24,56 24,51.9 20.1,51.9 20.1,48 16,48 16,51.9 12,51.9 12,56 4,56 4,52.1 0,52.1 0,24 4,24 4,11.9 7.9,11.9 7.9,20 11.8,20 
	11.8,24 20,24 20,19.9 23.9,19.9 23.9,8 20,8 20,0 36,0 36,8 31.9,8 31.9,19.9 36,19.9 36,24 44,24 44,20 47.9,20 47.9,11.9 
	52,11.9 52,23.8 "/>
</svg>
