<?xml version="1.0" encoding="utf-8"?>
<!-- Generator: Adobe Illustrator 22.1.0, SVG Export Plug-In . SVG Version: 6.00 Build 0)  -->
<svg version="1.1" id="Layer_1" xmlns="http://www.w3.org/2000/svg" xmlns:xlink="http://www.w3.org/1999/xlink" x="0px" y="0px"
	 viewBox="0 0 48 52" style="enable-background:new 0 0 48 52;" xml:space="preserve">
<style type="text/css">
	.st0{fill:#FFFF00;}
</style>
<image style="display:none;overflow:visible;enable-background:new    ;" width="48" height="52" id="Pac-Man" xlink:href="8FCE5927B570C8B9.png" >
</image>
<polygon class="st0" points="48,33.8 48,36 44,36 44,44.1 40.1,44.1 40.1,48.1 32,48.1 32,52 12,52 12,48 4,48 4,44.1 0,44.1 
	0,35.9 8,35.9 8,32 20,32 20,28 32,28 32,24 20,24 20,20 12,20 12,20 8,20 8,16.1 0,16.1 0,8 3.9,8 3.9,4 12,4 12,0 32,0 32,4 
	40.1,4 40.1,8 44,8 44,16 48,16 48,33.8 "/>
</svg>
