<?xml version="1.0" encoding="utf-8"?>
<!-- Generator: Adobe Illustrator 22.1.0, SVG Export Plug-In . SVG Version: 6.00 Build 0)  -->
<svg version="1.1" id="Layer_1" xmlns="http://www.w3.org/2000/svg" xmlns:xlink="http://www.w3.org/1999/xlink" x="0px" y="0px"
	 viewBox="0 0 56 56" style="enable-background:new 0 0 56 56;" xml:space="preserve">
<style type="text/css">
	.st0{fill:#FFB8DE;}
	.st1{fill:#DEDEDE;}
	.st2{fill:#2121DE;}
</style>
<polygon class="st0" points="56,23.8 56,56 52,56 52,51.8 47.9,51.8 47.9,48 44,48 44,51.8 40.2,51.8 40.2,56 31.9,56 31.9,48 
	25.4,48 25.4,56 15.9,56 15.9,52 11.8,52 11.8,48 7.9,48 7.9,51.9 4,51.9 4,56 0,56 0,24 4,24 4,11.9 7.9,11.9 7.9,20 11.8,20 
	11.8,24 20,24 20,19.9 23.9,19.9 23.9,8 20,8 20,0 36,0 36,8 31.9,8 31.9,19.9 36,19.9 36,24 44,24 44,21.1 43.9,21.1 43.9,20 
	47.9,20 47.9,11.9 51.8,11.9 51.8,11.9 52,11.9 52,23.8 "/>
<polygon class="st1" points="23.9,8 23.9,19.9 20,19.9 20,24 11.8,24 11.8,20 7.9,20 7.9,8 12,8 12,12 20,12 20,8 "/>
<polygon class="st1" points="47.9,8 47.9,20 44,20 44,24 36,24 36,19.9 31.9,19.9 31.9,8 36,8 36,12 44,12 44,8 "/>
<rect x="12" y="4.1" class="st2" width="8" height="8"/>
<rect x="36" y="3.9" class="st2" width="8.1" height="8.1"/>
</svg>
